/* XPM */
static char * vmware_view_xpm[] = {
"32 28 452 2",
"  	c None",
". 	c #E9C447",
"+ 	c #EED066",
"@ 	c #EFD26B",
"# 	c #F0D36B",
"$ 	c #F1D36B",
"% 	c #EED26B",
"& 	c #F2D46B",
"* 	c #EDD06B",
"= 	c #E0C563",
"- 	c #B59A39",
"; 	c #A17F10",
"> 	c #EAC035",
", 	c #EAD88F",
"' 	c #F3E7B4",
") 	c #F4E9BA",
"! 	c #F6EAB9",
"~ 	c #F6EBB8",
"{ 	c #F3E8B9",
"] 	c #F4E9B8",
"^ 	c #F3E9B9",
"/ 	c #F4E9B9",
"( 	c #F1E6B8",
"_ 	c #EBE1B5",
": 	c #DDD4AE",
"< 	c #C4BEA5",
"[ 	c #A5A293",
"} 	c #67655F",
"| 	c #645420",
"1 	c #E9B81C",
"2 	c #E8CB63",
"3 	c #F2E4AA",
"4 	c #F7ECBE",
"5 	c #F7EDC0",
"6 	c #F8EDBF",
"7 	c #F8EEBF",
"8 	c #F6ECBF",
"9 	c #F7ECBF",
"0 	c #F4EABE",
"a 	c #EDE3BB",
"b 	c #CCC7AD",
"c 	c #B6B3A4",
"d 	c #A3A29C",
"e 	c #999998",
"f 	c #959595",
"g 	c #7D7D7D",
"h 	c #504B3A",
"i 	c #8A6D11",
"j 	c #EDC63F",
"k 	c #EFDF96",
"l 	c #F4E9B7",
"m 	c #F6ECBD",
"n 	c #F8ECBC",
"o 	c #F7ECBB",
"p 	c #F2E8BA",
"q 	c #E5DCB5",
"r 	c #C3BDA7",
"s 	c #A4A29A",
"t 	c #969695",
"u 	c #949494",
"v 	c #8D8D8D",
"w 	c #626160",
"x 	c #635320",
"y 	c #EAB91A",
"z 	c #ECD476",
"A 	c #EFE2AA",
"B 	c #F2E7B9",
"C 	c #F5E9B7",
"D 	c #EDE2B4",
"E 	c #C6C0A4",
"F 	c #A3A196",
"G 	c #8F8F8F",
"H 	c #8E8E8E",
"I 	c #7B7B7A",
"J 	c #5F5B4B",
"K 	c #826918",
"L 	c #F0CB46",
"M 	c #F3E296",
"N 	c #F4E8B1",
"O 	c #F5E9B4",
"P 	c #F6EAB3",
"Q 	c #F2E5B1",
"R 	c #D6CCA5",
"S 	c #8B8A89",
"T 	c #878787",
"U 	c #8C8B89",
"V 	c #9D9A90",
"W 	c #C0B99B",
"X 	c #D9CC93",
"Y 	c #DEBF51",
"Z 	c #BD930E",
"` 	c #EBBD24",
" .	c #EFD87A",
"..	c #F2E4A6",
"+.	c #EFE4B0",
"@.	c #EEE3B0",
"#.	c #E7DCAA",
"$.	c #BFB799",
"%.	c #8B8983",
"&.	c #7F7F7F",
"*.	c #828180",
"=.	c #959288",
"-.	c #BEB79A",
";.	c #E0D5A9",
">.	c #EFE3AE",
",.	c #EEE1A8",
"'.	c #DCCB81",
").	c #AE8E24",
"!.	c #F1CD4D",
"~.	c #F8E593",
"{.	c #F8E9A6",
"].	c #F6E7A8",
"^.	c #E4D8A0",
"/.	c #A8A289",
"(.	c #7E7D79",
"_.	c #767676",
":.	c #797877",
"<.	c #86847C",
"[.	c #BCB48F",
"}.	c #E2D69D",
"|.	c #F0E2A4",
"1.	c #EBDEA3",
"2.	c #DDD19E",
"3.	c #BDB491",
"4.	c #8D8870",
"5.	c #50482C",
"6.	c #84670D",
"7.	c #E9BF33",
"8.	c #ECD883",
"9.	c #F3E39E",
"0.	c #EFE1A3",
"a.	c #D3C999",
"b.	c #908D7C",
"c.	c #6D6C6C",
"d.	c #6C6C6C",
"e.	c #74736F",
"f.	c #A6A081",
"g.	c #D6CA93",
"h.	c #EADC9A",
"i.	c #D5CA96",
"j.	c #AFA989",
"k.	c #8F8C7C",
"l.	c #767570",
"m.	c #656565",
"n.	c #40403F",
"o.	c #5E4D18",
"p.	c #EBB916",
"q.	c #EFCF5A",
"r.	c #F4E290",
"s.	c #F6E59B",
"t.	c #DACD92",
"u.	c #8B8773",
"v.	c #656564",
"w.	c #636363",
"x.	c #807C6D",
"y.	c #BDB281",
"z.	c #E4D58F",
"A.	c #DDCF8D",
"B.	c #A59D7A",
"C.	c #7C796C",
"D.	c #686865",
"E.	c #616161",
"F.	c #505050",
"G.	c #363328",
"H.	c #755B0E",
"I.	c #ECC336",
"J.	c #EEDB83",
"K.	c #EFDE94",
"L.	c #D7CA8B",
"M.	c #7D7967",
"N.	c #585858",
"O.	c #63625B",
"P.	c #97906C",
"Q.	c #DACB85",
"R.	c #D4C684",
"S.	c #989271",
"T.	c #6A685F",
"U.	c #535353",
"V.	c #42413E",
"W.	c #5B4D1D",
"X.	c #886A08",
"Y.	c #E8B40F",
"Z.	c #ECD268",
"`.	c #F0DD89",
" +	c #DDCE89",
".+	c #888164",
"++	c #51504F",
"@+	c #4E4E4E",
"#+	c #5C5A53",
"$+	c #A89D6E",
"%+	c #D9C87D",
"&+	c #B5A971",
"*+	c #76715B",
"=+	c #51514F",
"-+	c #6D695B",
";+	c #9F966C",
">+	c #C0AE60",
",+	c #CEA724",
"'+	c #EAC233",
")+	c #EED772",
"!+	c #E5D280",
"~+	c #877F5F",
"{+	c #444444",
"]+	c #434343",
"^+	c #464544",
"/+	c #736D52",
"(+	c #C5B66E",
"_+	c #CEBF73",
":+	c #89815B",
"<+	c #464644",
"[+	c #4C4B46",
"}+	c #736E55",
"|+	c #B0A46E",
"1+	c #E5D486",
"2+	c #EFDC87",
"3+	c #EFD877",
"4+	c #EAC94E",
"5+	c #CF9E04",
"6+	c #E7BD2E",
"7+	c #E4CC68",
"8+	c #A39559",
"9+	c #41403B",
"0+	c #393939",
"a+	c #3A3A3A",
"b+	c #6A654D",
"c+	c #CAB96D",
"d+	c #CDBC6B",
"e+	c #6B6649",
"f+	c #3F3E3B",
"g+	c #535145",
"h+	c #9B9263",
"i+	c #D0C179",
"j+	c #EBD883",
"k+	c #EDDA85",
"l+	c #ECD77F",
"m+	c #EAD36F",
"n+	c #E2C043",
"o+	c #A88002",
"p+	c #DEAA07",
"q+	c #A99037",
"r+	c #2D2A1C",
"s+	c #252525",
"t+	c #2E2E2E",
"u+	c #363531",
"v+	c #7E744B",
"w+	c #D1BF68",
"x+	c #B0A15B",
"y+	c #4E4A39",
"z+	c #2F2F2F",
"A+	c #30302F",
"B+	c #454337",
"C+	c #8E8352",
"D+	c #D6C36F",
"E+	c #ECD778",
"F+	c #F0DB7B",
"G+	c #F3DD7D",
"H+	c #F1DB7B",
"I+	c #F0D870",
"J+	c #EBCB4F",
"K+	c #B69013",
"L+	c #83660B",
"M+	c #100F09",
"N+	c #161616",
"O+	c #232323",
"P+	c #262626",
"Q+	c #2A2A28",
"R+	c #776E49",
"S+	c #CDBB68",
"T+	c #AD9F5A",
"U+	c #413D2F",
"V+	c #272726",
"W+	c #5D573A",
"X+	c #AFA05C",
"Y+	c #DAC771",
"Z+	c #E4CF75",
"`+	c #E9D477",
" @	c #E7D378",
".@	c #ECD779",
"+@	c #EAD373",
"@@	c #E7CE69",
"#@	c #D7B12F",
"$@	c #604A03",
"%@	c #483906",
"&@	c #0A0A09",
"*@	c #151515",
"=@	c #272520",
"-@	c #827644",
";@	c #D8C262",
">@	c #AC9B4E",
",@	c #383526",
"'@	c #1C1C1C",
")@	c #383527",
"!@	c #8C7F42",
"~@	c #E0C95E",
"{@	c #F1D867",
"]@	c #F2D86A",
"^@	c #F2D96C",
"/@	c #F4DB6D",
"(@	c #F4DB70",
"_@	c #F5DC6E",
":@	c #F4DA68",
"<@	c #EECD50",
"[@	c #A27C04",
"}@	c #8B6C07",
"|@	c #110E05",
"1@	c #0E0E0C",
"2@	c #72673A",
"3@	c #CEBA65",
"4@	c #B09F57",
"5@	c #353122",
"6@	c #151514",
"7@	c #141414",
"8@	c #3A3522",
"9@	c #AA9A4D",
"0@	c #E1C961",
"a@	c #EDD464",
"b@	c #E8D068",
"c@	c #E3CD6A",
"d@	c #E4CE6B",
"e@	c #E8D16C",
"f@	c #E7D16D",
"g@	c #EAD36A",
"h@	c #E8CE63",
"i@	c #D0A929",
"j@	c #5E4B0B",
"k@	c #675B2B",
"l@	c #D6BF5B",
"m@	c #C8B457",
"n@	c #423C21",
"o@	c #0D0D0D",
"p@	c #141310",
"q@	c #5E542B",
"r@	c #C2AD4D",
"s@	c #EAD05D",
"t@	c #F1D65F",
"u@	c #F3D860",
"v@	c #EFD562",
"w@	c #ECD364",
"x@	c #EDD466",
"y@	c #EFD667",
"z@	c #EFD668",
"A@	c #F1D764",
"B@	c #E7C23D",
"C@	c #7C6109",
"D@	c #C89D0F",
"E@	c #D5B847",
"F@	c #D2BB59",
"G@	c #554E29",
"H@	c #0A0908",
"I@	c #060606",
"J@	c #14120B",
"K@	c #70642C",
"L@	c #D7C055",
"M@	c #E8CF5C",
"N@	c #E9D05E",
"O@	c #EDD35D",
"P@	c #F0D55E",
"Q@	c #EAD161",
"R@	c #E6CF64",
"S@	c #E7CF65",
"T@	c #EAD265",
"U@	c #EAD166",
"V@	c #EBD05C",
"W@	c #BD9515",
"X@	c #DDB222",
"Y@	c #817130",
"Z@	c #0B0A05",
"`@	c #020202",
" #	c #131109",
".#	c #7E7135",
"+#	c #D6BF55",
"@#	c #E8CE5C",
"##	c #EAD15C",
"$#	c #E8CF5E",
"%#	c #EDD25D",
"&#	c #F0D55D",
"*#	c #EAD060",
"=#	c #E5CD63",
"-#	c #E6CD64",
";#	c #EBD264",
">#	c #EAD165",
",#	c #DEB833",
"'#	c #775B03",
")#	c #A98105",
"!#	c #3B300A",
"~#	c #000000",
"{#	c #010101",
"]#	c #1B180A",
"^#	c #8E7E36",
"/#	c #E4CB5A",
"(#	c #EED35D",
"_#	c #F2D75E",
":#	c #EED360",
"<#	c #EBD162",
"[#	c #ECD263",
"}#	c #EED464",
"|#	c #E9CB52",
"1#	c #BD9410",
"2#	c #886906",
"3#	c #0D0B05",
"4#	c #151209",
"5#	c #90813D",
"6#	c #DDC65B",
"7#	c #E4CC61",
"8#	c #E7CF60",
"9#	c #E6CE60",
"0#	c #E7CE60",
"a#	c #E6CD61",
"b#	c #EBD160",
"c#	c #EED460",
"d#	c #E7CE63",
"e#	c #E2CB65",
"f#	c #E3CC66",
"g#	c #DBB630",
"h#	c #614B04",
"i#	c #4F3F0A",
"j#	c #030201",
"k#	c #18150A",
"l#	c #93833E",
"m#	c #E8CF5F",
"n#	c #EFD561",
"o#	c #ECD261",
"p#	c #EDD361",
"q#	c #EED361",
"r#	c #F1D762",
"s#	c #EDD463",
"t#	c #EBD265",
"u#	c #EBD266",
"v#	c #E6C547",
"w#	c #957308",
"x#	c #86690B",
"y#	c #272009",
"z#	c #807138",
"A#	c #D5BE5D",
"B#	c #E7CE62",
"C#	c #E8CE61",
"D#	c #E2C962",
"E#	c #E3CB62",
"F#	c #E4CC62",
"G#	c #E3CA62",
"H#	c #E8CF61",
"I#	c #E3CB64",
"J#	c #DEC765",
"K#	c #E0C865",
"L#	c #D2A71B",
"M#	c #A4810F",
"N#	c #C39A15",
"O#	c #C79E15",
"P#	c #C89F15",
"Q#	c #C89F16",
"R#	c #C59C13",
"S#	c #846605",
"                                                                ",
"                . + @ # $ % @ @ @ % $ & * = - ;                 ",
"              > , ' ) ! ~ { ] ^ / ( _ : < [ } |                 ",
"            1 2 3 4 5 6 7 8 9 0 a b c d e f g h i               ",
"            j k l m m n o p q r s t u u u u v w x               ",
"          y z A B ) / C D E F G H H H H H H H I J K             ",
"          L M N O P Q R [ S T T T T T T T U V W X Y Z           ",
"        `  ...+.@.#.$.%.&.&.&.&.&.&.&.*.=.-.;.>.,.'.).          ",
"        !.~.{.].^./.(._._._._._._.:.<.[.}.|.1.2.3.4.5.6.        ",
"      7.8.9.0.a.b.c.d.d.d.d.d.d.e.f.g.h.i.j.k.l.d.m.n.o.        ",
"    p.q.r.s.t.u.v.w.w.w.w.w.v.x.y.z.A.B.C.D.w.w.w.E.F.G.H.      ",
"    I.J.K.L.M.N.N.N.N.N.N.O.P.Q.R.S.T.N.N.N.N.N.N.N.U.V.W.X.    ",
"  Y.Z.`. +.+++@+@+@+@+@+#+$+%+&+*+=+@+@+@+@+@+@+@+=+-+;+>+,+    ",
"  '+)+!+~+{+]+]+]+]+^+/+(+_+:+<+]+]+]+]+]+]+]+[+}+|+1+2+3+4+5+  ",
"  6+7+8+9+0+0+0+0+a+b+c+d+e+f+0+0+0+0+0+0+a+g+h+i+j+k+l+m+n+o+  ",
"  p+q+r+s+t+t+t+u+v+w+x+y+z+t+t+t+t+t+A+B+C+D+E+F+G+H+I+J+K+    ",
"    L+M+N+O+P+Q+R+S+T+U+P+P+P+P+P+P+V+W+X+Y+Z+`+ @.@+@@@#@$@    ",
"      %@&@*@=@-@;@>@,@'@'@'@'@'@'@)@!@~@{@]@^@/@(@_@:@<@[@      ",
"      }@|@1@2@3@4@5@6@7@7@7@7@*@8@9@0@a@b@c@d@e@f@g@h@i@        ",
"        j@k@l@m@n@o@o@o@o@o@p@q@r@s@t@u@v@w@x@y@z@A@B@C@        ",
"        D@E@F@G@H@I@I@I@I@J@K@L@M@N@O@P@Q@R@S@T@U@V@W@          ",
"          X@Y@Z@`@`@`@`@ #.#+#@###$#%#&#*#=#-#;#>#,#'#          ",
"          )#!#~#{#{#{#]#^#/#O@O@(#O@&#_#:#<#[#}#|#1#            ",
"            2#3#~#~#4#5#6#7#8#9#0#a#b#c#d#e#f#h@g#h#            ",
"              i#j#k#l#m#n#o#p#p#q#p#v@r#s#t#u#v#w#              ",
"              x#y#z#A#B#C#D#E#E#F#G#H#o#I#J#K#L#                ",
"                M#N#O#P#P#P#P#P#P#P#P#P#P#Q#R#S#                ",
"                                                                "};
